HIERARCHY
ROOT Hips
{
	OFFSET	0.00	0.00	0.00
	CHANNELS 6 Xposition Yposition Zposition Zrotation Xrotation Yrotation
	JOINT LeftUpLeg
	{
		OFFSET	 0.126116	-0.065224	 0.014019
		CHANNELS 3 Zrotation Xrotation Yrotation
		JOINT LeftLeg
		{
			OFFSET	 0.000000	 0.569914	 0.000000
			CHANNELS 3 Zrotation Xrotation Yrotation
			JOINT LeftFoot
			{
				OFFSET	 0.000000	 0.544423	 0.000000
				CHANNELS 3 Zrotation Xrotation Yrotation
				JOINT LeftToeBase
				{
					OFFSET	 0.000000	 0.207117	 0.000000
					CHANNELS 3 Zrotation Xrotation Yrotation
					End Site
					{
						OFFSET	 0.000000	 0.207117	 0.000000
					}
				}
			}
		}
	}
	JOINT RightUpLeg
	{
		OFFSET	-0.124023	-0.065224	 0.008373
		CHANNELS 3 Zrotation Xrotation Yrotation
		JOINT RightLeg
		{
			OFFSET	 0.000000	 0.570047	 0.000000
			CHANNELS 3 Zrotation Xrotation Yrotation
			JOINT RightFoot
			{
				OFFSET	 0.000000	 0.544354	 0.000000
				CHANNELS 3 Zrotation Xrotation Yrotation
				JOINT RightToeBase
				{
					OFFSET	 0.000000	 0.207540	 0.000000
					CHANNELS 3 Zrotation Xrotation Yrotation
					End Site
					{
						OFFSET	 0.000000	 0.207540	 0.000000
					}
				}
			}
		}
	}
	JOINT Spine
	{
		OFFSET	 0.000184	 0.117403	 0.007763
		CHANNELS 3 Zrotation Xrotation Yrotation
		JOINT Spine1
		{
			OFFSET	 0.000000	 0.137269	 0.000000
			CHANNELS 3 Zrotation Xrotation Yrotation
			JOINT Spine2
			{
				OFFSET	 0.000000	 0.156879	 0.000000
				CHANNELS 3 Zrotation Xrotation Yrotation
				JOINT LeftShoulder
				{
					OFFSET	 0.080501	 0.160143	 0.002496
					CHANNELS 3 Zrotation Xrotation Yrotation
					JOINT LeftArm
					{
						OFFSET	 0.000000	 0.164363	 0.000000
						CHANNELS 3 Zrotation Xrotation Yrotation
						JOINT LeftForeArm
						{
							OFFSET	 0.000000	 0.364576	 0.000000
							CHANNELS 3 Zrotation Xrotation Yrotation
							JOINT LeftHand
							{
								OFFSET	 0.000000	 0.360812	 0.000000
								CHANNELS 3 Zrotation Xrotation Yrotation
								JOINT LeftHandIndex1
								{
									OFFSET	 0.000000	 0.086006	 0.000000
									CHANNELS 3 Zrotation Xrotation Yrotation
									JOINT LeftHandIndex2
									{
										OFFSET	 0.000000	 0.047237	 0.000000
										CHANNELS 3 Zrotation Xrotation Yrotation
										JOINT LeftHandIndex3
										{
											OFFSET	-0.004284	 0.038165	 0.000551
											CHANNELS 3 Zrotation Xrotation Yrotation
											End Site
											{
												OFFSET	-0.004284	 0.038165	 0.000551
											}
										}
									}
								}
							}
						}
					}
				}
				JOINT Neck
				{
					OFFSET	 0.000000	 0.176489	 0.000000
					CHANNELS 3 Zrotation Xrotation Yrotation
					JOINT Head
					{
						OFFSET	 0.000000	 0.077941	 0.001747
						CHANNELS 3 Zrotation Xrotation Yrotation
						End Site
						{
							OFFSET	 0.000000	 0.077941	 0.001747
						}
					}
				}
				JOINT RightShoulder
				{
					OFFSET	-0.080363	 0.159706	-0.000306
					CHANNELS 3 Zrotation Xrotation Yrotation
					JOINT RightArm
					{
						OFFSET	 0.000000	 0.164196	 0.000000
						CHANNELS 3 Zrotation Xrotation Yrotation
						JOINT RightForeArm
						{
							OFFSET	 0.000000	 0.365611	 0.000000
							CHANNELS 3 Zrotation Xrotation Yrotation
							JOINT RightHand
							{
								OFFSET	 0.000000	 0.360648	 0.000000
								CHANNELS 3 Zrotation Xrotation Yrotation
								JOINT RightHandIndex1
								{
									OFFSET	 0.000000	 0.069977	 0.000000
									CHANNELS 3 Zrotation Xrotation Yrotation
									JOINT RightHandIndex2
									{
										OFFSET	 0.000000	 0.052305	 0.000000
										CHANNELS 3 Zrotation Xrotation Yrotation
										JOINT RightHandIndex3
										{
											OFFSET	 0.009002	 0.042196	 0.000782
											CHANNELS 3 Zrotation Xrotation Yrotation
											End Site
											{
												OFFSET	 0.009002	 0.042196	 0.000782
											}
										}
									}
								}
							}
						}
					}
				}
			}
		}
	}
}
MOTION
Frames:    7
Frame Time: 0.03333334
 0.448391	 1.272141	 0.471147	 0.332034	-4.875463	-174.093100	 174.291500	 11.770120	 20.018140	 3.717407	-13.715230	 6.548692	 3.628569	 67.116870	-1.553348	 1.292262	 28.425850	-2.713146	-178.176500	 14.125440	-11.988840	-2.769428	-14.110580	 0.058507	 1.430768	 65.816830	-4.755231	-1.288183	 28.361890	 2.710176	 0.168495	 2.049781	 1.334394	-0.408037	 1.232972	 0.264385	 0.572255	-6.315836	-3.736326	-121.020300	 4.751293	 92.699750	 26.991990	 28.772980	 28.374260	 69.592660	-4.361379	-14.663770	 12.377660	-14.560260	 8.975951	-6.580301	 5.266122	 0.000000	 0.000000	 0.000000	 0.000000	 0.000000	 0.000000	 0.000000	 0.335004	 7.712454	-1.660889	 0.326957	-7.105156	-1.409127	 123.772700	 6.033525	-94.161880	-27.055070	 34.267560	-11.791420	-55.975800	 1.132781	-15.639880	-23.229740	-30.255310	-13.610130	 15.208500	 5.323790	 0.000000	 0.000000	 0.000000	 0.000000	 0.000000	 0.000000	 0.000000
 0.443199	 1.277021	 0.452329	 0.228805	-1.866434	-175.007800	 175.203300	 6.759910	 18.701280	 3.143246	-11.662230	 4.953135	 2.429663	 66.895850	 1.693152	 1.292262	 28.425850	-2.713146	-178.666100	 8.642444	-12.786240	-2.208956	-11.339310	-0.102806	-1.009731	 65.371320	-3.675546	-1.288183	 28.361890	 2.710176	 0.026603	 1.510303	 1.450939	-0.680923	-1.231564	 0.415078	 0.578492	-5.833698	-3.262892	-121.789500	 3.025810	 91.881710	 26.267860	 35.354810	 30.430770	 66.122970	-4.255587	-14.258860	 12.734930	-16.462660	 10.782190	-6.580301	 5.266122	 0.000000	 0.000000	 0.000000	 0.000000	 0.000000	 0.000000	 0.000000	 0.489866	 6.269696	-1.361162	 0.030748	-4.963541	-1.325590	 123.352600	 4.956709	-93.562710	-27.444020	 38.811710	-12.939880	-57.427790	 1.151783	-15.789160	-19.470260	-29.114290	-13.614440	 15.208500	 5.323790	 0.000000	 0.000000	 0.000000	 0.000000	 0.000000	 0.000000	 0.000000
 0.442412	 1.276786	 0.451744	 0.213634	-1.761417	-175.104000	 175.191400	 6.609205	 18.607690	 3.128966	-11.610680	 4.892962	 2.390227	 66.891360	 1.819384	 1.292262	 28.425850	-2.713146	-178.689000	 8.531863	-12.882860	-2.213395	-11.361490	-0.094385	-0.987784	 65.436120	-3.693853	-1.288183	 28.361890	 2.710176	 0.020951	 1.490632	 1.451249	-0.679282	-1.211635	 0.427603	 0.568431	-5.906001	-3.222440	-121.747600	 3.050560	 91.892270	 26.139270	 35.644540	 30.572970	 65.840250	-4.246267	-14.279830	 13.029860	-16.599880	 10.956740	-6.580301	 5.266122	 0.000000	 0.000000	 0.000000	 0.000000	 0.000000	 0.000000	 0.000000	 0.508768	 6.081360	-1.333258	-0.038122	-4.865809	-1.313228	 123.319100	 4.968568	-93.565860	-27.433570	 38.875130	-13.019090	-57.603320	 1.154098	-15.756190	-19.313730	-29.018480	-13.654360	 15.208500	 5.323790	 0.000000	 0.000000	 0.000000	 0.000000	 0.000000	 0.000000	 0.000000
 0.441650	 1.276539	 0.451225	 0.200532	-1.667548	-175.190100	 175.177300	 6.477591	 18.524250	 3.116875	-11.567090	 4.839102	 2.356410	 66.885800	 1.932461	 1.292262	 28.425850	-2.713146	-178.710400	 8.438066	-12.969120	-2.218786	-11.388470	-0.087244	-0.963512	 65.496500	-3.711523	-1.288183	 28.361890	 2.710176	 0.016306	 1.473682	 1.448933	-0.674936	-1.184825	 0.436443	 0.558087	-5.974763	-3.186379	-121.710200	 3.072670	 91.901710	 26.021080	 35.907420	 30.703460	 65.571220	-4.237303	-14.299740	 13.315300	-16.727980	 11.118650	-6.580301	 5.266122	 0.000000	 0.000000	 0.000000	 0.000000	 0.000000	 0.000000	 0.000000	 0.525745	 5.912942	-1.308259	-0.099785	-4.778359	-1.302057	 123.289200	 4.979157	-93.568660	-27.429050	 38.926200	-13.083100	-57.773240	 1.156192	-15.726400	-19.165560	-28.922550	-13.688270	 15.208500	 5.323790	 0.000000	 0.000000	 0.000000	 0.000000	 0.000000	 0.000000	 0.000000
 0.440804	 1.276251	 0.450685	 0.187327	-1.569347	-175.280300	 175.159700	 6.342780	 18.436990	 3.104935	-11.524010	 4.782746	 2.322087	 66.878860	 2.051099	 1.292262	 28.425850	-2.713146	-178.733300	 8.344186	-13.059750	-2.225571	-11.422370	-0.080191	-0.935244	 65.561440	-3.729940	-1.288183	 28.361890	 2.710176	 0.011806	 1.455539	 1.444436	-0.667510	-1.145761	 0.443907	 0.545865	-6.051912	-3.148688	-121.670900	 3.095863	 91.911610	 25.895510	 36.185350	 30.841930	 65.275510	-4.227362	-14.321560	 13.632800	-16.866090	 11.292790	-6.580301	 5.266122	 0.000000	 0.000000	 0.000000	 0.000000	 0.000000	 0.000000	 0.000000	 0.543601	 5.736533	-1.282028	-0.164453	-4.686714	-1.290252	 123.257800	 4.990262	-93.571580	-27.428860	 38.974330	-13.143830	-57.961600	 1.158636	-15.694920	-19.004380	-28.813930	-13.722560	 15.208500	 5.323790	 0.000000	 0.000000	 0.000000	 0.000000	 0.000000	 0.000000	 0.000000
 0.440015	 1.275971	 0.450206	 0.175909	-1.481104	-175.360900	 175.142100	 6.223636	 18.359070	 3.094586	-11.486650	 4.732213	 2.292145	 66.871500	 2.157473	 1.292262	 28.425850	-2.713146	-178.754100	 8.262901	-13.141130	-2.232441	-11.456680	-0.074216	-0.908289	 65.620570	-3.746003	-1.288183	 28.361890	 2.710176	 0.008077	 1.439676	 1.438855	-0.658929	-1.101806	 0.449255	 0.534022	-6.125282	-3.115020	-121.635700	 3.116646	 91.920430	 25.782030	 36.435380	 30.966290	 65.000910	-4.218006	-14.341770	 13.930830	-16.991920	 11.452070	-6.580301	 5.266122	 0.000000	 0.000000	 0.000000	 0.000000	 0.000000	 0.000000	 0.000000	 0.559669	 5.578439	-1.258479	-0.222479	-4.604660	-1.279502	 123.229600	 5.000207	-93.574210	-27.432240	 39.013400	-13.193160	-58.137150	 1.160901	-15.666570	-18.856990	-28.710960	-13.752870	 15.208500	 5.323790	 0.000000	 0.000000	 0.000000	 0.000000	 0.000000	 0.000000	 0.000000
 0.439259	 1.275695	 0.449765	 0.165591	-1.398826	-175.435800	 175.124100	 6.114553	 18.286530	 3.085619	-11.454250	 4.685205	 2.264078	 66.864750	 2.257268	 1.292262	 28.425850	-2.713146	-178.773400	 8.189817	-13.216740	-2.239614	-11.492510	-0.068853	-0.881262	 65.676980	-3.761506	-1.288183	 28.361890	 2.710176	 0.004765	 1.424295	 1.432761	-0.649149	-1.052838	 0.453538	 0.522116	-6.197340	-3.083704	-121.603000	 3.136030	 91.928650	 25.676630	 36.668760	 31.081570	 64.738140	-4.209012	-14.361070	 14.217850	-17.109980	 11.602170	-6.580301	 5.266122	 0.000000	 0.000000	 0.000000	 0.000000	 0.000000	 0.000000	 0.000000	 0.574703	 5.431061	-1.236490	-0.276633	-4.528155	-1.269399	 123.203400	 5.009503	-93.576640	-27.438180	 39.046680	-13.235290	-58.303670	 1.162916	-15.639990	-18.718990	-28.611560	-13.780940	 15.208500	 5.323790	 0.000000	 0.000000	 0.000000	 0.000000	 0.000000	 0.000000	 0.000000
